<svg class="img-fluid" id="outputsvg" xmlns="http://www.w3.org/2000/svg" style="transform: matrix(1, 0, 0, 1, 0, 0); transform-origin: 50% 50%; cursor: move; transition: transform 200ms ease-in-out 0s;" width="940" height="210" viewBox="0 0 9400 2100"><g id="l1AQLhnMG16tllbFFdaclzD" fill="rgb(152,145,217)" style="transform: none;"><g><path id="p189tpr2Ek" d="M8345 2021 c-54 -14 -89 -38 -158 -109 -91 -95 -97 -112 -97 -282 0 -127 2 -146 25 -200 24 -58 31 -90 19 -90 -3 0 -39 31 -80 69 -102 96 -128 103 -339 100 l-166 -2 -67 65 c-109 107 -126 113 -322 113 -151 0 -169 -2 -211 -23 -43 -21 -201 -172 -246 -236 -23 -33 -43 -28 -43 12 0 51 -46 125 -126 204 -113 110 -133 118 -329 118 -148 0 -164 -2 -210 -24 -54 -26 -185 -153 -273 -267 -29 -37 -59 -70 -68 -73 -9 -3 -58 -6 -109 -6 l-93 0 -36 48 c-19 27 -69 81 -110 119 -105 101 -142 113 -340 113 -171 0 -218 -9 -289 -59 -25 -17 -50 -31 -55 -31 -5 0 -35 16 -67 35 -78 46 -144 58 -295 53 -148 -6 -176 -17 -260 -102 -30 -31 -59 -56 -64 -56 -5 0 -35 25 -67 55 -95 91 -124 100 -319 100 -150 0 -169 -2 -205 -21 -60 -33 -164 -148 -224 -247 -34 -56 -62 -92 -78 -98 -13 -5 -55 -9 -93 -9 l-69 0 -108 109 c-88 89 -122 116 -178 143 l-70 33 -170 0 c-198 0 -215 -5 -300 -86 l-55 -51 -84 27 c-80 26 -91 27 -237 23 -85 -3 -161 -8 -171 -12 -12 -5 -32 7 -72 43 -31 28 -66 53 -78 56 -13 3 -255 5 -538 3 -457 -3 -518 -5 -545 -20 -46 -25 -193 -180 -202 -214 -4 -16 -8 -99 -8 -184 0 -149 1 -157 27 -210 37 -76 176 -211 254 -247 l59 -28 350 -3 c193 -2 354 -7 358 -11 5 -5 9 -78 10 -162 2 -183 4 -188 116 -302 109 -113 128 -121 286 -125 81 -2 148 1 175 8 66 18 152 108 305 320 74 103 143 194 153 204 19 16 23 13 113 -60 144 -118 161 -124 357 -124 193 0 202 3 304 107 71 72 98 121 98 176 0 19 6 39 13 46 9 7 237 12 758 14 409 2 758 7 775 11 29 7 35 2 184 -161 223 -244 300 -322 342 -344 32 -16 59 -19 193 -19 182 0 197 5 285 94 30 31 60 56 68 56 7 0 33 -16 56 -35 81 -66 113 -75 282 -75 204 0 222 7 340 124 102 102 124 146 124 248 0 45 3 58 15 58 8 0 15 -7 15 -16 0 -19 106 -131 142 -150 15 -8 48 -14 74 -14 45 0 50 -3 129 -80 51 -50 95 -84 116 -90 45 -13 254 -13 302 1 41 11 153 109 186 162 11 18 23 49 26 70 4 21 13 41 20 43 7 3 33 -5 57 -18 l43 -23 715 0 c712 0 715 0 762 22 61 28 207 168 244 235 28 52 29 57 32 223 5 248 22 217 -313 583 -187 205 -290 310 -322 329 -45 26 -55 28 -183 30 -74 1 -148 -1 -165 -6z m193 -246 c29 -12 95 -78 271 -271 128 -140 241 -270 252 -289 11 -19 23 -59 26 -89 8 -78 -16 -137 -83 -202 -93 -91 -71 -88 -683 -92 -583 -3 -610 -1 -688 51 -109 73 -138 175 -78 272 45 72 110 110 190 110 86 0 122 -28 256 -198 78 -98 120 -143 144 -153 49 -20 242 -19 295 2 60 24 85 72 85 159 -1 62 -7 85 -53 195 -142 335 -144 342 -139 377 8 45 49 98 95 123 45 24 61 24 110 5z m-2241 -281 c52 -30 98 -85 117 -141 13 -37 13 -50 2 -87 -18 -59 -60 -111 -115 -144 l-46 -27 -454 -3 c-308 -2 -459 -6 -468 -14 -7 -6 -13 -30 -13 -54 0 -33 5 -46 19 -54 13 -6 139 -10 342 -10 218 0 334 -4 361 -12 83 -25 167 -128 168 -206 0 -36 -31 -104 -64 -140 -31 -35 -110 -72 -154 -72 -80 0 -131 39 -252 191 -61 77 -125 149 -143 159 -46 28 -139 28 -168 -1 -17 -17 -20 -30 -16 -72 2 -29 14 -78 26 -110 20 -54 20 -59 6 -94 -40 -96 -134 -140 -212 -100 -26 14 -317 324 -462 492 -51 59 -81 128 -81 185 0 44 58 147 103 184 90 73 175 86 270 42 62 -30 114 -84 146 -151 26 -56 71 -92 124 -100 23 -4 135 -5 249 -3 190 3 209 5 235 24 15 11 76 80 135 154 107 134 138 162 206 186 45 16 83 10 139 -22z m917 -56 c59 -18 138 -99 155 -161 25 -90 -26 -184 -126 -233 l-58 -29 -282 -3 c-283 -3 -323 1 -323 32 0 20 46 36 108 36 37 0 66 6 84 18 14 9 73 77 131 150 113 143 136 165 194 187 48 17 66 18 117 3z m-3603 -23 c60 -21 142 -94 171 -152 15 -32 25 -73 28 -123 l5 -75 62 -3 c95 -4 109 7 202 162 87 144 119 179 181 197 100 30 255 -82 291 -209 15 -55 -7 -117 -60 -165 -63 -57 -83 -58 -932 -56 -606 1 -763 -2 -775 -12 -17 -14 -15 -78 3 -135 21 -62 -26 -141 -105 -176 -48 -22 -81 -18 -147 15 -57 28 -308 241 -337 285 -35 54 -58 117 -58 160 1 80 67 168 149 197 57 20 79 19 146 -6 73 -27 141 -82 190 -155 72 -104 72 -104 327 -104 238 0 262 4 309 56 14 16 56 79 93 141 96 161 150 194 257 158z m-2347 -94 c21 -23 7 -36 -49 -46 -98 -16 -242 -78 -305 -131 -31 -26 -32 -30 -28 -82 8 -92 9 -92 279 -92 295 0 300 2 335 120 28 94 135 168 228 158 133 -15 271 -150 292 -284 12 -77 14 -73 -324 -539 -64 -89 -111 -121 -161 -110 -69 15 -151 95 -165 160 -4 19 5 78 24 160 38 164 39 217 5 250 l-24 25 -410 0 c-388 0 -413 1 -465 20 -111 42 -205 164 -193 252 7 56 48 111 99 137 42 20 54 21 444 21 378 0 402 -1 418 -19z m5550 -474 c8 -13 5 -23 -15 -43 -22 -22 -30 -24 -48 -15 -11 6 -25 20 -31 31 -9 17 -6 25 15 46 24 23 28 25 47 12 12 -8 27 -22 32 -31z m346 -25 c35 -26 62 -84 54 -117 -9 -37 -66 -92 -103 -100 -62 -13 -145 56 -145 120 0 64 78 131 139 120 17 -3 41 -13 55 -23z"></path></g></g><g id="l6sEMNyp28PnZdyJqma2V8P" fill="rgb(255,255,255)" style="transform: none;"><g><path id="phEW8cvfg" d="M8398 1800 c-67 -36 -116 -128 -103 -193 7 -31 28 -85 146 -367 59 -141 65 -187 30 -243 -29 -48 -81 -67 -182 -67 -119 0 -131 8 -258 167 -121 153 -159 185 -242 203 -108 24 -225 -33 -274 -135 -25 -49 -27 -64 -23 -126 4 -57 11 -79 35 -112 38 -55 111 -103 177 -117 37 -7 229 -10 617 -8 640 4 618 1 708 86 57 54 93 125 97 194 3 55 -17 137 -42 175 -9 15 -120 140 -247 279 -174 191 -240 257 -269 269 -52 21 -125 18 -170 -5z"></path><path id="p11nKsD8lF" d="M6128 1547 c-69 -26 -99 -54 -206 -187 -59 -74 -120 -143 -135 -154 -26 -19 -45 -21 -205 -24 -96 -2 -195 -1 -219 3 -53 8 -98 44 -124 100 -53 113 -153 178 -274 179 -124 2 -220 -57 -274 -166 -56 -111 -38 -230 50 -333 139 -161 435 -478 460 -490 100 -52 225 -10 270 90 24 52 24 93 -2 163 -32 88 -33 98 -10 121 26 26 66 27 108 1 18 -10 82 -82 144 -159 96 -122 118 -144 167 -168 76 -37 156 -37 227 -1 58 30 85 57 113 113 31 63 35 109 17 173 -21 70 -97 150 -161 170 -29 8 -138 12 -366 12 -267 0 -328 3 -344 14 -15 12 -17 18 -8 33 10 17 41 18 471 23 l460 5 48 30 c62 39 102 96 117 167 10 49 9 65 -5 110 -33 104 -121 177 -224 184 -35 3 -73 -1 -95 -9z"></path><path id="ppby1MWcN" d="M7067 1465 c-58 -22 -81 -44 -194 -187 -58 -73 -117 -141 -131 -150 -18 -12 -47 -18 -85 -18 -84 0 -117 -20 -117 -72 0 -56 14 -58 347 -58 275 0 307 2 353 19 73 28 114 63 144 123 49 99 31 203 -49 283 -72 73 -172 95 -268 60z"></path><path id="p12XYbzimq" d="M3471 1449 c-52 -21 -83 -55 -147 -162 -37 -62 -79 -125 -93 -141 -46 -51 -73 -56 -279 -56 -220 0 -227 2 -297 104 -126 186 -361 234 -484 101 -87 -94 -88 -227 -3 -357 29 -45 280 -257 341 -288 128 -65 277 -14 310 107 15 52 14 74 -5 129 -13 40 -14 49 -2 61 12 11 138 13 777 13 851 0 870 1 932 57 125 113 72 325 -103 412 -95 48 -201 39 -266 -22 -13 -12 -60 -82 -104 -155 -85 -141 -111 -166 -171 -160 l-32 3 -5 75 c-3 50 -13 91 -28 123 -29 58 -111 131 -171 152 -49 17 -133 19 -170 4z"></path><path id="ppNw8bYTe" d="M372 1349 c-64 -32 -96 -85 -100 -169 -3 -56 0 -76 23 -123 32 -69 98 -129 171 -157 52 -19 77 -20 465 -20 l410 0 24 -25 c14 -13 25 -32 25 -41 0 -9 -14 -78 -31 -152 -37 -163 -36 -223 7 -280 36 -47 50 -59 99 -82 50 -24 119 -25 165 -2 33 16 49 37 215 267 214 297 210 291 203 396 -9 123 -86 232 -206 290 -63 31 -176 38 -237 15 -61 -24 -122 -87 -139 -146 -35 -116 -44 -120 -305 -120 -218 0 -233 4 -246 61 -5 21 0 31 26 53 63 53 190 109 299 130 43 9 58 17 69 38 14 25 14 29 -5 55 l-21 28 -434 3 c-427 2 -435 2 -477 -19z"></path><path id="p1HrBrmgOs" d="M6705 895 c-56 -55 -16 -145 63 -145 51 0 86 35 86 87 0 73 -96 111 -149 58z"></path><path id="p17yxqZCDX" d="M7050 878 c-143 -41 -164 -231 -32 -294 46 -22 128 -15 169 14 64 45 82 157 36 220 -36 50 -115 77 -173 60z"></path></g></g></svg>